<svg xmlns="http://www.w3.org/2000/svg" xmlns:xlink="http://www.w3.org/1999/xlink" width="2000" zoomAndPan="magnify" viewBox="0 0 1500 1499.999933" height="2000" preserveAspectRatio="xMidYMid meet" version="1.0"><defs><clipPath id="35add9bb27"><path d="M 213 214 L 1286 214 L 1286 1286 L 213 1286 Z M 213 214 " clip-rule="nonzero"/></clipPath><clipPath id="e806d0e0cb"><path d="M 1170.6875 707.070312 L 1170.6875 1146.273438 C 1170.6875 1160.246094 1159.359375 1171.480469 1145.480469 1171.480469 L 352.902344 1171.480469 C 338.929688 1171.480469 327.695312 1160.148438 327.695312 1146.273438 L 327.695312 353.691406 C 327.695312 339.71875 339.023438 328.484375 352.902344 328.484375 L 1145.480469 328.484375 C 1159.453125 328.484375 1170.6875 339.8125 1170.6875 353.691406 L 1170.6875 370.308594 C 1170.6875 376.539062 1178.148438 379.746094 1182.679688 375.5 L 1262.835938 300.535156 C 1267.648438 296.101562 1269.066406 288.734375 1265.667969 283.070312 C 1241.496094 241.8125 1196.652344 214.054688 1145.480469 214.054688 L 352.902344 214.054688 C 275.769531 214.054688 213.269531 276.558594 213.269531 353.691406 L 213.269531 1146.273438 C 213.269531 1223.40625 275.769531 1285.90625 352.902344 1285.90625 L 1145.480469 1285.90625 C 1222.617188 1285.90625 1285.113281 1223.40625 1285.113281 1146.273438 L 1285.113281 611.242188 C 1285.113281 603.3125 1275.578125 599.160156 1269.820312 604.636719 L 1177.863281 690.644531 C 1173.332031 694.890625 1170.6875 700.839844 1170.6875 707.070312 " clip-rule="nonzero"/></clipPath><clipPath id="b53b75f75a"><path d="M 0.121094 0 L 1072.199219 0 L 1072.199219 1071.917969 L 0.121094 1071.917969 Z M 0.121094 0 " clip-rule="nonzero"/></clipPath><clipPath id="cc597466de"><path d="M 957.6875 493.070312 L 957.6875 932.273438 C 957.6875 946.246094 946.359375 957.480469 932.480469 957.480469 L 139.902344 957.480469 C 125.929688 957.480469 114.695312 946.148438 114.695312 932.273438 L 114.695312 139.691406 C 114.695312 125.71875 126.023438 114.484375 139.902344 114.484375 L 932.480469 114.484375 C 946.453125 114.484375 957.6875 125.8125 957.6875 139.691406 L 957.6875 156.308594 C 957.6875 162.539062 965.148438 165.746094 969.679688 161.5 L 1049.835938 86.535156 C 1054.648438 82.101562 1056.066406 74.734375 1052.667969 69.070312 C 1028.496094 27.8125 983.652344 0.0546875 932.480469 0.0546875 L 139.902344 0.0546875 C 62.769531 0.0546875 0.269531 62.558594 0.269531 139.691406 L 0.269531 932.273438 C 0.269531 1009.40625 62.769531 1071.90625 139.902344 1071.90625 L 932.480469 1071.90625 C 1009.617188 1071.90625 1072.113281 1009.40625 1072.113281 932.273438 L 1072.113281 397.242188 C 1072.113281 389.3125 1062.578125 385.160156 1056.820312 390.636719 L 964.863281 476.644531 C 960.332031 480.890625 957.6875 486.839844 957.6875 493.070312 " clip-rule="nonzero"/></clipPath><clipPath id="dc9464579f"><rect x="0" width="1073" y="0" height="1072"/></clipPath><clipPath id="533b2c0aa9"><path d="M 487 274 L 1453 274 L 1453 977 L 487 977 Z M 487 274 " clip-rule="nonzero"/></clipPath><clipPath id="1d23da8424"><path d="M 752.070312 976.046875 C 728.28125 976.046875 704.394531 967.363281 685.796875 950.085938 L 506.886719 790.4375 C 483.285156 769.382812 481.300781 733.222656 502.355469 709.621094 C 523.410156 686.015625 559.566406 684.035156 583.171875 704.996094 L 751.695312 855.578125 L 1356.488281 289.964844 C 1379.527344 268.34375 1415.78125 269.570312 1437.398438 292.699219 C 1459.019531 315.832031 1457.792969 351.992188 1434.660156 373.609375 L 818.632812 949.613281 C 800.125 967.171875 776.144531 976.046875 752.070312 976.046875 M 740.363281 866.152344 C 740.363281 866.25 740.269531 866.25 740.175781 866.34375 Z M 762.457031 865.117188 L 762.835938 865.492188 C 762.738281 865.398438 762.550781 865.304688 762.457031 865.117188 " clip-rule="nonzero"/></clipPath><clipPath id="fd816982a1"><path d="M 0 0 L 966 0 L 966 702.078125 L 0 702.078125 Z M 0 0 " clip-rule="nonzero"/></clipPath><clipPath id="73b9fddb5c"><path d="M 265.070312 702.046875 C 241.28125 702.046875 217.394531 693.363281 198.796875 676.085938 L 19.886719 516.4375 C -3.714844 495.382812 -5.699219 459.222656 15.355469 435.621094 C 36.410156 412.015625 72.566406 410.035156 96.171875 430.996094 L 264.695312 581.578125 L 869.488281 15.964844 C 892.527344 -5.65625 928.78125 -4.429688 950.398438 18.699219 C 972.019531 41.832031 970.792969 77.992188 947.660156 99.609375 L 331.632812 675.613281 C 313.125 693.171875 289.144531 702.046875 265.070312 702.046875 M 253.363281 592.152344 C 253.363281 592.25 253.269531 592.25 253.175781 592.34375 Z M 275.457031 591.117188 L 275.835938 591.492188 C 275.738281 591.398438 275.550781 591.304688 275.457031 591.117188 " clip-rule="nonzero"/></clipPath><clipPath id="3066f6e0b0"><rect x="0" width="966" y="0" height="703"/></clipPath></defs><g clip-path="url(#35add9bb27)"><g clip-path="url(#e806d0e0cb)"><g transform="matrix(1, 0, 0, 1, 213, 214)"><g clip-path="url(#dc9464579f)"><g clip-path="url(#b53b75f75a)"><g clip-path="url(#cc597466de)"><rect x="-543" width="2160" fill="#ffffff" height="2159.999904" y="-543.999985" fill-opacity="1"/></g></g></g></g></g></g><g clip-path="url(#533b2c0aa9)"><g clip-path="url(#1d23da8424)"><g transform="matrix(1, 0, 0, 1, 487, 274)"><g clip-path="url(#3066f6e0b0)"><g clip-path="url(#fd816982a1)"><g clip-path="url(#73b9fddb5c)"><rect x="-817" width="2160" fill="#99ff00" height="2159.999904" y="-603.999985" fill-opacity="1"/></g></g></g></g></g></g></svg>