<svg xmlns="http://www.w3.org/2000/svg" xmlns:xlink="http://www.w3.org/1999/xlink" width="2000" zoomAndPan="magnify" viewBox="0 0 1500 1499.999933" height="2000" preserveAspectRatio="xMidYMid meet" version="1.0"><defs><clipPath id="a8e46df9c1"><path d="M 516 331 L 984 331 L 984 799 L 516 799 Z M 516 331 " clip-rule="nonzero"/></clipPath><clipPath id="e9916f1421"><path d="M 933.882812 546.554688 L 933.882812 738 C 933.882812 744.09375 928.992188 748.988281 922.894531 748.988281 L 577.058594 748.988281 C 570.960938 748.988281 566.070312 744.09375 566.070312 738 L 566.070312 392.484375 C 566.070312 386.386719 570.960938 381.496094 577.058594 381.496094 L 922.894531 381.496094 C 928.992188 381.496094 933.882812 386.386719 933.882812 392.484375 L 933.882812 399.703125 C 933.882812 402.429688 937.171875 403.871094 939.097656 401.949219 L 974.066406 369.304688 C 976.152344 367.378906 976.792969 364.171875 975.351562 361.683594 C 964.683594 343.71875 945.191406 331.609375 922.894531 331.609375 L 577.058594 331.609375 C 543.453125 331.609375 516.183594 358.878906 516.183594 392.484375 L 516.183594 738 C 516.183594 771.605469 543.453125 798.875 577.058594 798.875 L 922.894531 798.875 C 956.5 798.875 983.769531 771.605469 983.769531 738 L 983.769531 504.769531 C 983.769531 501.320312 979.601562 499.476562 977.113281 501.878906 L 937.011719 539.414062 C 935.007812 541.261719 933.882812 543.828125 933.882812 546.554688 " clip-rule="nonzero"/></clipPath><clipPath id="d6566ca256"><path d="M 0 0.441406 L 468 0.441406 L 468 467.960938 L 0 467.960938 Z M 0 0.441406 " clip-rule="nonzero"/></clipPath><clipPath id="1ffb4936cb"><path d="M 417.882812 215.554688 L 417.882812 407 C 417.882812 413.09375 412.992188 417.988281 406.894531 417.988281 L 61.058594 417.988281 C 54.960938 417.988281 50.070312 413.09375 50.070312 407 L 50.070312 61.484375 C 50.070312 55.386719 54.960938 50.496094 61.058594 50.496094 L 406.894531 50.496094 C 412.992188 50.496094 417.882812 55.386719 417.882812 61.484375 L 417.882812 68.703125 C 417.882812 71.429688 421.171875 72.871094 423.097656 70.949219 L 458.066406 38.304688 C 460.152344 36.378906 460.792969 33.171875 459.351562 30.683594 C 448.683594 12.71875 429.191406 0.609375 406.894531 0.609375 L 61.058594 0.609375 C 27.453125 0.609375 0.183594 27.878906 0.183594 61.484375 L 0.183594 407 C 0.183594 440.605469 27.453125 467.875 61.058594 467.875 L 406.894531 467.875 C 440.5 467.875 467.769531 440.605469 467.769531 407 L 467.769531 173.769531 C 467.769531 170.320312 463.601562 168.476562 461.113281 170.878906 L 421.011719 208.414062 C 419.007812 210.261719 417.882812 212.828125 417.882812 215.554688 " clip-rule="nonzero"/></clipPath><clipPath id="78c5673379"><rect x="0" width="468" y="0" height="468"/></clipPath><clipPath id="4396b73c54"><path d="M 636 357.804688 L 1057 357.804688 L 1057 664 L 636 664 Z M 636 357.804688 " clip-rule="nonzero"/></clipPath><clipPath id="0e544c49b9"><path d="M 751.421875 663.8125 C 741.074219 663.8125 730.648438 660.042969 722.546875 652.503906 L 644.507812 582.886719 C 634.242188 573.742188 633.359375 557.941406 642.503906 547.675781 C 651.648438 537.410156 667.445312 536.527344 677.714844 545.671875 L 751.179688 611.277344 L 1014.890625 364.652344 C 1024.914062 355.269531 1040.714844 355.75 1050.179688 365.855469 C 1059.644531 375.960938 1059.082031 391.679688 1048.976562 401.144531 L 780.375 652.261719 C 772.273438 659.960938 761.847656 663.730469 751.339844 663.730469 M 746.207031 615.851562 C 746.207031 615.851562 746.128906 615.929688 746.128906 615.929688 Z M 755.832031 615.367188 L 755.992188 615.527344 C 755.910156 615.449219 755.832031 615.449219 755.832031 615.367188 " clip-rule="nonzero"/></clipPath><clipPath id="aa8811007f"><path d="M 0 0.804688 L 421 0.804688 L 421 306.839844 L 0 306.839844 Z M 0 0.804688 " clip-rule="nonzero"/></clipPath><clipPath id="bbb43e67c0"><path d="M 115.421875 306.8125 C 105.074219 306.8125 94.648438 303.042969 86.546875 295.503906 L 8.507812 225.886719 C -1.757812 216.742188 -2.640625 200.941406 6.503906 190.675781 C 15.648438 180.410156 31.445312 179.527344 41.714844 188.671875 L 115.179688 254.277344 L 378.890625 7.652344 C 388.914062 -1.730469 404.714844 -1.25 414.179688 8.855469 C 423.644531 18.960938 423.082031 34.679688 412.976562 44.144531 L 144.375 295.261719 C 136.273438 302.960938 125.847656 306.730469 115.339844 306.730469 M 110.207031 258.851562 C 110.207031 258.851562 110.128906 258.929688 110.128906 258.929688 Z M 119.832031 258.367188 L 119.992188 258.527344 C 119.910156 258.449219 119.832031 258.449219 119.832031 258.367188 " clip-rule="nonzero"/></clipPath><clipPath id="b312a92ba1"><rect x="0" width="421" y="0" height="307"/></clipPath><clipPath id="a3d434db51"><path d="M 376 975 L 548 975 L 548 1169 L 376 1169 Z M 376 975 " clip-rule="nonzero"/></clipPath><clipPath id="bedfbcf0cc"><path d="M 439.089844 1168.363281 C 419.921875 1168.363281 404.761719 1163.070312 393.453125 1152.566406 C 382.144531 1142.058594 376.53125 1125.054688 376.53125 1101.554688 L 376.53125 982.132812 C 376.53125 978.28125 379.65625 975.15625 383.507812 975.15625 L 419.519531 975.15625 C 423.371094 975.15625 426.496094 978.28125 426.496094 982.132812 L 426.496094 1093.292969 C 426.496094 1099.550781 427.21875 1104.761719 428.664062 1108.933594 C 430.105469 1113.105469 432.191406 1116.554688 434.917969 1119.199219 C 437.644531 1121.847656 441.09375 1123.773438 445.183594 1124.976562 C 449.277344 1126.179688 453.765625 1126.738281 458.820312 1126.738281 C 466.199219 1126.738281 472.9375 1124.976562 478.949219 1121.367188 C 484.964844 1117.757812 489.617188 1112.785156 492.988281 1106.449219 C 496.355469 1100.113281 498.039062 1092.972656 498.039062 1085.113281 L 498.039062 982.132812 C 498.039062 978.28125 501.167969 975.15625 505.015625 975.15625 L 540.949219 975.15625 C 544.796875 975.15625 547.925781 978.28125 547.925781 982.132812 L 547.925781 1157.054688 C 547.925781 1160.90625 544.796875 1164.035156 540.949219 1164.035156 L 513.117188 1164.035156 C 509.667969 1164.035156 506.703125 1161.46875 506.21875 1158.019531 L 503.492188 1138.207031 L 501.007812 1138.207031 C 496.433594 1144.222656 491.140625 1149.4375 485.046875 1154.007812 C 478.949219 1158.582031 472.054688 1162.109375 464.355469 1164.59375 C 456.652344 1167.082031 448.3125 1168.363281 439.167969 1168.363281 " clip-rule="nonzero"/></clipPath><clipPath id="ed98809131"><path d="M 0.320312 0.121094 L 172 0.121094 L 172 193.558594 L 0.320312 193.558594 Z M 0.320312 0.121094 " clip-rule="nonzero"/></clipPath><clipPath id="bdfa5596d3"><path d="M 63.089844 193.363281 C 43.921875 193.363281 28.761719 188.070312 17.453125 177.566406 C 6.144531 167.058594 0.53125 150.054688 0.53125 126.554688 L 0.53125 7.132812 C 0.53125 3.28125 3.65625 0.15625 7.507812 0.15625 L 43.519531 0.15625 C 47.371094 0.15625 50.496094 3.28125 50.496094 7.132812 L 50.496094 118.292969 C 50.496094 124.550781 51.21875 129.761719 52.664062 133.933594 C 54.105469 138.105469 56.191406 141.554688 58.917969 144.199219 C 61.644531 146.847656 65.09375 148.773438 69.183594 149.976562 C 73.277344 151.179688 77.765625 151.738281 82.820312 151.738281 C 90.199219 151.738281 96.9375 149.976562 102.949219 146.367188 C 108.964844 142.757812 113.617188 137.785156 116.988281 131.449219 C 120.355469 125.113281 122.039062 117.972656 122.039062 110.113281 L 122.039062 7.132812 C 122.039062 3.28125 125.167969 0.15625 129.015625 0.15625 L 164.949219 0.15625 C 168.796875 0.15625 171.925781 3.28125 171.925781 7.132812 L 171.925781 182.054688 C 171.925781 185.90625 168.796875 189.035156 164.949219 189.035156 L 137.117188 189.035156 C 133.667969 189.035156 130.703125 186.46875 130.21875 183.019531 L 127.492188 163.207031 L 125.007812 163.207031 C 120.433594 169.222656 115.140625 174.4375 109.046875 179.007812 C 102.949219 183.582031 96.054688 187.109375 88.355469 189.59375 C 80.652344 192.082031 72.3125 193.363281 63.167969 193.363281 " clip-rule="nonzero"/></clipPath><clipPath id="776c6933d4"><rect x="0" width="172" y="0" height="194"/></clipPath><clipPath id="aa077a4265"><path d="M 582.761719 970.246094 L 777.933594 970.246094 L 777.933594 1168 L 582.761719 1168 Z M 582.761719 970.246094 " clip-rule="nonzero"/></clipPath><clipPath id="92f6709307"><path d="M 643.851562 1167.882812 C 637.59375 1167.882812 631.019531 1167.160156 623.960938 1165.71875 C 616.902344 1164.273438 610.246094 1161.707031 603.988281 1158.019531 C 597.734375 1154.328125 592.679688 1148.875 588.75 1141.816406 C 584.820312 1134.757812 582.816406 1125.695312 582.816406 1114.707031 C 582.816406 1101.554688 585.703125 1090.648438 591.476562 1081.984375 C 597.253906 1073.324219 605.433594 1066.585938 616.101562 1061.695312 C 626.769531 1056.800781 639.519531 1053.351562 654.359375 1051.429688 C 667.269531 1049.742188 681.304688 1048.78125 696.625 1048.621094 C 700.476562 1048.539062 703.601562 1045.492188 703.601562 1041.644531 L 703.601562 1034.585938 C 703.601562 1029.050781 702.722656 1024.320312 700.875 1020.230469 C 699.03125 1016.136719 695.984375 1012.929688 691.574219 1010.523438 C 687.160156 1008.117188 680.984375 1006.914062 673.046875 1006.914062 C 665.105469 1006.914062 658.769531 1007.878906 653.796875 1009.800781 C 648.824219 1011.726562 645.375 1014.132812 643.371094 1017.179688 C 641.847656 1019.027344 641.042969 1021.992188 640.644531 1024.640625 C 640.082031 1028.488281 636.875 1031.378906 632.941406 1031.378906 L 599.417969 1031.378906 C 595.007812 1031.378906 591.476562 1027.6875 591.558594 1023.277344 C 591.957031 1010.765625 595.890625 1001.941406 601.421875 995.285156 C 608.160156 987.265625 617.625 981.089844 629.816406 976.757812 C 642.007812 972.425781 656.28125 970.261719 672.5625 970.261719 C 690.046875 970.261719 704.726562 972.507812 716.597656 977.078125 C 728.464844 981.652344 737.53125 988.308594 743.867188 997.210938 C 750.203125 1006.113281 753.410156 1017.179688 753.410156 1030.65625 L 753.410156 1116.554688 C 753.410156 1120.882812 754.695312 1124.011719 757.179688 1126.097656 C 759.667969 1128.183594 762.472656 1129.144531 765.601562 1129.144531 L 770.492188 1129.144531 C 774.34375 1129.144531 777.472656 1132.273438 777.472656 1136.125 L 777.472656 1157.054688 C 777.472656 1160.023438 775.625 1162.671875 772.898438 1163.632812 C 771.054688 1164.273438 768.890625 1164.917969 766.324219 1165.558594 C 761.269531 1166.839844 755.175781 1167.5625 747.957031 1167.5625 C 740.976562 1167.5625 734.882812 1166.519531 729.429688 1164.515625 C 723.976562 1162.511719 719.5625 1159.621094 715.953125 1155.851562 C 712.34375 1152.082031 709.859375 1147.671875 708.414062 1142.378906 L 705.929688 1142.378906 C 701.839844 1147.433594 696.867188 1151.84375 691.011719 1155.691406 C 685.15625 1159.542969 678.339844 1162.511719 670.558594 1164.675781 C 662.78125 1166.839844 653.875 1167.882812 643.769531 1167.882812 M 660.613281 1130.1875 C 667.351562 1130.1875 673.285156 1129.226562 678.578125 1127.140625 C 683.875 1125.054688 688.285156 1122.328125 691.894531 1118.878906 C 695.503906 1115.429688 698.308594 1111.179688 700.316406 1106.128906 C 702.320312 1101.074219 703.363281 1095.699219 703.363281 1089.925781 L 703.363281 1079.5 C 689.96875 1079.5 678.019531 1080.382812 667.429688 1082.144531 C 656.84375 1083.910156 648.582031 1087.039062 642.488281 1091.289062 C 636.390625 1095.539062 633.34375 1101.554688 633.34375 1109.253906 C 633.34375 1113.585938 634.46875 1117.273438 636.550781 1120.402344 C 638.636719 1123.53125 641.847656 1125.9375 645.855469 1127.621094 C 649.867188 1129.304688 654.839844 1130.109375 660.613281 1130.109375 " clip-rule="nonzero"/></clipPath><clipPath id="e0b22d92fd"><path d="M 0.761719 0.246094 L 195.601562 0.246094 L 195.601562 198 L 0.761719 198 Z M 0.761719 0.246094 " clip-rule="nonzero"/></clipPath><clipPath id="81c2634274"><path d="M 61.851562 197.882812 C 55.59375 197.882812 49.019531 197.160156 41.960938 195.71875 C 34.902344 194.273438 28.246094 191.707031 21.988281 188.019531 C 15.734375 184.328125 10.679688 178.875 6.75 171.816406 C 2.820312 164.757812 0.816406 155.695312 0.816406 144.707031 C 0.816406 131.554688 3.703125 120.648438 9.476562 111.984375 C 15.253906 103.324219 23.433594 96.585938 34.101562 91.695312 C 44.769531 86.800781 57.519531 83.351562 72.359375 81.429688 C 85.269531 79.742188 99.304688 78.78125 114.625 78.621094 C 118.476562 78.539062 121.601562 75.492188 121.601562 71.644531 L 121.601562 64.585938 C 121.601562 59.050781 120.722656 54.320312 118.875 50.230469 C 117.03125 46.136719 113.984375 42.929688 109.574219 40.523438 C 105.160156 38.117188 98.984375 36.914062 91.046875 36.914062 C 83.105469 36.914062 76.769531 37.878906 71.796875 39.800781 C 66.824219 41.726562 63.375 44.132812 61.371094 47.179688 C 59.847656 49.027344 59.042969 51.992188 58.644531 54.640625 C 58.082031 58.488281 54.875 61.378906 50.941406 61.378906 L 17.417969 61.378906 C 13.007812 61.378906 9.476562 57.6875 9.558594 53.277344 C 9.957031 40.765625 13.890625 31.941406 19.421875 25.285156 C 26.160156 17.265625 35.625 11.089844 47.816406 6.757812 C 60.007812 2.425781 74.28125 0.261719 90.5625 0.261719 C 108.046875 0.261719 122.726562 2.507812 134.597656 7.078125 C 146.464844 11.652344 155.53125 18.308594 161.867188 27.210938 C 168.203125 36.113281 171.410156 47.179688 171.410156 60.65625 L 171.410156 146.554688 C 171.410156 150.882812 172.695312 154.011719 175.179688 156.097656 C 177.667969 158.183594 180.472656 159.144531 183.601562 159.144531 L 188.492188 159.144531 C 192.34375 159.144531 195.472656 162.273438 195.472656 166.125 L 195.472656 187.054688 C 195.472656 190.023438 193.625 192.671875 190.898438 193.632812 C 189.054688 194.273438 186.890625 194.917969 184.324219 195.558594 C 179.269531 196.839844 173.175781 197.5625 165.957031 197.5625 C 158.976562 197.5625 152.882812 196.519531 147.429688 194.515625 C 141.976562 192.511719 137.5625 189.621094 133.953125 185.851562 C 130.34375 182.082031 127.859375 177.671875 126.414062 172.378906 L 123.929688 172.378906 C 119.839844 177.433594 114.867188 181.84375 109.011719 185.691406 C 103.15625 189.542969 96.339844 192.511719 88.558594 194.675781 C 80.78125 196.839844 71.875 197.882812 61.769531 197.882812 M 78.613281 160.1875 C 85.351562 160.1875 91.285156 159.226562 96.578125 157.140625 C 101.875 155.054688 106.285156 152.328125 109.894531 148.878906 C 113.503906 145.429688 116.308594 141.179688 118.316406 136.128906 C 120.320312 131.074219 121.363281 125.699219 121.363281 119.925781 L 121.363281 109.5 C 107.96875 109.5 96.019531 110.382812 85.429688 112.144531 C 74.84375 113.910156 66.582031 117.039062 60.488281 121.289062 C 54.390625 125.539062 51.34375 131.554688 51.34375 139.253906 C 51.34375 143.585938 52.46875 147.273438 54.550781 150.402344 C 56.636719 153.53125 59.847656 155.9375 63.855469 157.621094 C 67.867188 159.304688 72.839844 160.109375 78.613281 160.109375 " clip-rule="nonzero"/></clipPath><clipPath id="ebfa1e7f93"><rect x="0" width="196" y="0" height="198"/></clipPath><clipPath id="a0486a82ee"><path d="M 792.738281 904.292969 L 975 904.292969 L 975 1169 L 792.738281 1169 Z M 792.738281 904.292969 " clip-rule="nonzero"/></clipPath><clipPath id="720e43ddfc"><path d="M 869.066406 1168.363281 C 853.503906 1168.363281 840.03125 1164.835938 828.640625 1157.777344 C 817.253906 1150.71875 808.429688 1139.894531 802.253906 1125.296875 C 796.078125 1110.699219 792.949219 1092.011719 792.949219 1069.234375 C 792.949219 1046.457031 796.160156 1027.847656 802.496094 1013.410156 C 808.832031 998.976562 817.574219 988.226562 828.722656 981.25 C 839.871094 974.273438 852.703125 970.824219 867.300781 970.824219 C 875.480469 970.824219 883.019531 971.707031 890.078125 973.550781 C 897.136719 975.394531 903.390625 978.203125 908.765625 981.972656 C 914.140625 985.742188 918.792969 990.472656 922.640625 996.007812 L 924.808594 996.007812 L 924.808594 911.390625 C 924.808594 907.542969 927.933594 904.414062 931.785156 904.414062 L 967.714844 904.414062 C 971.566406 904.414062 974.695312 907.542969 974.695312 911.390625 L 974.695312 1157.054688 C 974.695312 1160.90625 971.566406 1164.035156 967.714844 1164.035156 L 939.726562 1164.035156 C 936.277344 1164.035156 933.308594 1161.546875 932.828125 1158.097656 L 929.78125 1138.53125 L 927.292969 1138.53125 C 921.035156 1148.554688 912.9375 1156.09375 902.832031 1160.988281 C 892.726562 1165.878906 881.496094 1168.363281 869.066406 1168.363281 M 884.863281 1127.382812 C 894.167969 1127.382812 901.789062 1125.214844 907.644531 1120.882812 C 913.496094 1116.554688 917.910156 1110.378906 920.796875 1102.195312 C 923.683594 1094.015625 925.128906 1084.390625 925.128906 1073.082031 L 925.128906 1066.585938 C 925.128906 1058.246094 924.324219 1050.546875 922.800781 1043.566406 C 921.277344 1036.589844 918.792969 1030.816406 915.421875 1026.164062 C 912.054688 1021.511719 907.882812 1017.902344 902.832031 1015.417969 C 897.777344 1012.929688 891.84375 1011.648438 884.863281 1011.648438 C 874.839844 1011.648438 866.738281 1013.652344 860.804688 1017.582031 C 854.867188 1021.511719 850.539062 1027.527344 847.890625 1035.546875 C 845.242188 1043.566406 843.960938 1053.59375 843.960938 1065.542969 L 843.960938 1073.804688 C 843.960938 1085.753906 845.242188 1095.699219 847.890625 1103.640625 C 850.539062 1111.582031 854.867188 1117.515625 860.804688 1121.445312 C 866.738281 1125.375 874.839844 1127.382812 884.863281 1127.382812 " clip-rule="nonzero"/></clipPath><clipPath id="cae8843698"><path d="M 0.738281 0.320312 L 182.878906 0.320312 L 182.878906 264.558594 L 0.738281 264.558594 Z M 0.738281 0.320312 " clip-rule="nonzero"/></clipPath><clipPath id="52ab361bd3"><path d="M 77.066406 264.363281 C 61.503906 264.363281 48.03125 260.835938 36.640625 253.777344 C 25.253906 246.71875 16.429688 235.894531 10.253906 221.296875 C 4.078125 206.699219 0.949219 188.011719 0.949219 165.234375 C 0.949219 142.457031 4.160156 123.847656 10.496094 109.410156 C 16.832031 94.976562 25.574219 84.226562 36.722656 77.25 C 47.871094 70.273438 60.703125 66.824219 75.300781 66.824219 C 83.480469 66.824219 91.019531 67.707031 98.078125 69.550781 C 105.136719 71.394531 111.390625 74.203125 116.765625 77.972656 C 122.140625 81.742188 126.792969 86.472656 130.640625 92.007812 L 132.808594 92.007812 L 132.808594 7.390625 C 132.808594 3.542969 135.933594 0.414062 139.785156 0.414062 L 175.714844 0.414062 C 179.566406 0.414062 182.695312 3.542969 182.695312 7.390625 L 182.695312 253.054688 C 182.695312 256.90625 179.566406 260.035156 175.714844 260.035156 L 147.726562 260.035156 C 144.277344 260.035156 141.308594 257.546875 140.828125 254.097656 L 137.78125 234.53125 L 135.292969 234.53125 C 129.035156 244.554688 120.9375 252.09375 110.832031 256.988281 C 100.726562 261.878906 89.496094 264.363281 77.066406 264.363281 M 92.863281 223.382812 C 102.167969 223.382812 109.789062 221.214844 115.644531 216.882812 C 121.496094 212.554688 125.910156 206.378906 128.796875 198.195312 C 131.683594 190.015625 133.128906 180.390625 133.128906 169.082031 L 133.128906 162.585938 C 133.128906 154.246094 132.324219 146.546875 130.800781 139.566406 C 129.277344 132.589844 126.792969 126.816406 123.421875 122.164062 C 120.054688 117.511719 115.882812 113.902344 110.832031 111.417969 C 105.777344 108.929688 99.84375 107.648438 92.863281 107.648438 C 82.839844 107.648438 74.738281 109.652344 68.804688 113.582031 C 62.867188 117.511719 58.539062 123.527344 55.890625 131.546875 C 53.242188 139.566406 51.960938 149.59375 51.960938 161.542969 L 51.960938 169.804688 C 51.960938 181.753906 53.242188 191.699219 55.890625 199.640625 C 58.539062 207.582031 62.867188 213.515625 68.804688 217.445312 C 74.738281 221.375 82.839844 223.382812 92.863281 223.382812 " clip-rule="nonzero"/></clipPath><clipPath id="20d064b936"><rect x="0" width="183" y="0" height="265"/></clipPath><clipPath id="6ecc80453f"><path d="M 1020.21875 970.246094 L 1131 970.246094 L 1131 1164.074219 L 1020.21875 1164.074219 Z M 1020.21875 970.246094 " clip-rule="nonzero"/></clipPath><clipPath id="9cdcd30166"><path d="M 1020.652344 1157.054688 L 1020.652344 982.132812 C 1020.652344 978.28125 1023.777344 975.15625 1027.628906 975.15625 L 1055.859375 975.15625 C 1059.390625 975.15625 1062.355469 977.722656 1062.757812 981.25 L 1065.886719 1004.667969 L 1068.371094 1004.667969 C 1070.777344 998.414062 1073.90625 992.800781 1077.675781 987.585938 C 1081.445312 982.371094 1086.339844 978.28125 1092.03125 975.15625 C 1097.726562 972.027344 1104.464844 970.503906 1112.164062 970.503906 C 1116.09375 970.421875 1120.34375 971.144531 1123.792969 971.945312 C 1127.964844 972.910156 1130.851562 976.597656 1130.851562 980.847656 L 1130.851562 1012.289062 C 1130.851562 1016.136719 1127.722656 1019.265625 1123.875 1019.265625 L 1115.453125 1019.265625 C 1108.074219 1019.265625 1101.496094 1020.308594 1095.882812 1022.3125 C 1090.269531 1024.320312 1085.535156 1027.527344 1081.6875 1031.859375 C 1077.835938 1036.1875 1075.03125 1041.402344 1073.265625 1047.660156 C 1071.5 1053.914062 1070.539062 1061.214844 1070.539062 1069.554688 L 1070.539062 1157.054688 C 1070.539062 1160.90625 1067.410156 1164.035156 1063.558594 1164.035156 L 1027.628906 1164.035156 C 1023.777344 1164.035156 1020.652344 1160.90625 1020.652344 1157.054688 " clip-rule="nonzero"/></clipPath><clipPath id="679c1b1b71"><path d="M 0.480469 0.320312 L 110.878906 0.320312 L 110.878906 194.074219 L 0.480469 194.074219 Z M 0.480469 0.320312 " clip-rule="nonzero"/></clipPath><clipPath id="cd48078f21"><path d="M 0.652344 187.054688 L 0.652344 12.132812 C 0.652344 8.28125 3.777344 5.15625 7.628906 5.15625 L 35.859375 5.15625 C 39.390625 5.15625 42.355469 7.722656 42.757812 11.25 L 45.886719 34.667969 L 48.371094 34.667969 C 50.777344 28.414062 53.90625 22.800781 57.675781 17.585938 C 61.445312 12.371094 66.339844 8.28125 72.03125 5.15625 C 77.726562 2.027344 84.464844 0.503906 92.164062 0.503906 C 96.09375 0.421875 100.34375 1.144531 103.792969 1.945312 C 107.964844 2.910156 110.851562 6.597656 110.851562 10.847656 L 110.851562 42.289062 C 110.851562 46.136719 107.722656 49.265625 103.875 49.265625 L 95.453125 49.265625 C 88.074219 49.265625 81.496094 50.308594 75.882812 52.3125 C 70.269531 54.320312 65.535156 57.527344 61.6875 61.859375 C 57.835938 66.1875 55.03125 71.402344 53.265625 77.660156 C 51.5 83.914062 50.539062 91.214844 50.539062 99.554688 L 50.539062 187.054688 C 50.539062 190.90625 47.410156 194.035156 43.558594 194.035156 L 7.628906 194.035156 C 3.777344 194.035156 0.652344 190.90625 0.652344 187.054688 " clip-rule="nonzero"/></clipPath><clipPath id="41ab3ca777"><rect x="0" width="111" y="0" height="195"/></clipPath><clipPath id="216fb5fa3f"><path d="M 1144.050781 970.246094 L 1327 970.246094 L 1327 1169 L 1144.050781 1169 Z M 1144.050781 970.246094 " clip-rule="nonzero"/></clipPath><clipPath id="c1f6d08ea3"><path d="M 1239.449219 1168.363281 C 1218.59375 1168.363281 1201.109375 1164.835938 1186.996094 1157.777344 C 1172.878906 1150.71875 1162.210938 1139.894531 1154.992188 1125.296875 C 1147.773438 1110.699219 1144.246094 1092.089844 1144.246094 1069.632812 C 1144.246094 1046.855469 1147.855469 1028.25 1154.992188 1013.8125 C 1162.132812 999.375 1172.796875 988.546875 1186.835938 981.492188 C 1200.871094 974.433594 1218.035156 970.902344 1238.40625 970.902344 C 1257.574219 970.902344 1273.695312 974.273438 1286.929688 981.167969 C 1300.164062 988.066406 1310.027344 998.574219 1316.765625 1012.769531 C 1323.503906 1026.964844 1326.789062 1045.414062 1326.789062 1067.949219 L 1326.789062 1073.886719 C 1326.789062 1077.734375 1323.664062 1080.863281 1319.8125 1080.863281 L 1202.394531 1080.863281 C 1198.222656 1080.863281 1195.015625 1084.550781 1195.417969 1088.722656 C 1196.21875 1096.34375 1197.820312 1103.078125 1200.066406 1108.855469 C 1203.035156 1116.554688 1207.765625 1122.167969 1214.105469 1125.9375 C 1220.441406 1129.707031 1228.859375 1131.472656 1239.449219 1131.472656 C 1245.222656 1131.472656 1250.4375 1130.75 1255.089844 1129.304688 C 1259.738281 1127.863281 1263.75 1125.695312 1267.117188 1122.808594 C 1270.488281 1119.921875 1273.132812 1116.3125 1274.980469 1112.0625 C 1276.183594 1109.414062 1276.984375 1106.527344 1277.464844 1103.480469 C 1277.945312 1099.953125 1280.914062 1097.386719 1284.441406 1097.386719 L 1319.492188 1097.386719 C 1323.664062 1097.386719 1326.789062 1101.074219 1326.46875 1105.246094 C 1325.746094 1113.988281 1323.664062 1121.765625 1320.375 1128.664062 C 1316.042969 1137.566406 1310.109375 1144.867188 1302.410156 1150.800781 C 1294.707031 1156.734375 1285.566406 1161.066406 1274.898438 1164.113281 C 1264.230469 1167.160156 1252.441406 1168.605469 1239.527344 1168.605469 M 1203.917969 1049.101562 L 1267.921875 1049.101562 C 1272.089844 1049.101562 1275.378906 1045.492188 1274.898438 1041.324219 C 1274.496094 1037.3125 1273.695312 1033.703125 1272.574219 1030.414062 C 1270.808594 1025.121094 1268.320312 1020.871094 1265.195312 1017.5 C 1262.066406 1014.132812 1258.296875 1011.726562 1253.886719 1010.125 C 1249.472656 1008.519531 1244.5 1007.796875 1238.96875 1007.796875 C 1229.824219 1007.796875 1222.285156 1009.320312 1216.1875 1012.289062 C 1210.09375 1015.257812 1205.441406 1019.828125 1202.152344 1025.921875 C 1199.988281 1030.09375 1198.222656 1034.90625 1196.941406 1040.601562 C 1195.976562 1044.929688 1199.347656 1049.101562 1203.835938 1049.101562 " clip-rule="nonzero"/></clipPath><clipPath id="fe31608bf2"><path d="M 0.078125 0.800781 L 182.960938 0.800781 L 182.960938 198.800781 L 0.078125 198.800781 Z M 0.078125 0.800781 " clip-rule="nonzero"/></clipPath><clipPath id="9962572e29"><path d="M 95.449219 198.363281 C 74.59375 198.363281 57.109375 194.835938 42.996094 187.777344 C 28.878906 180.71875 18.210938 169.894531 10.992188 155.296875 C 3.773438 140.699219 0.246094 122.089844 0.246094 99.632812 C 0.246094 76.855469 3.855469 58.25 10.992188 43.8125 C 18.132812 29.375 28.796875 18.546875 42.835938 11.492188 C 56.871094 4.433594 74.035156 0.902344 94.40625 0.902344 C 113.574219 0.902344 129.695312 4.273438 142.929688 11.167969 C 156.164062 18.066406 166.027344 28.574219 172.765625 42.769531 C 179.503906 56.964844 182.789062 75.414062 182.789062 97.949219 L 182.789062 103.886719 C 182.789062 107.734375 179.664062 110.863281 175.8125 110.863281 L 58.394531 110.863281 C 54.222656 110.863281 51.015625 114.550781 51.417969 118.722656 C 52.21875 126.34375 53.820312 133.078125 56.066406 138.855469 C 59.035156 146.554688 63.765625 152.167969 70.105469 155.9375 C 76.441406 159.707031 84.859375 161.472656 95.449219 161.472656 C 101.222656 161.472656 106.4375 160.75 111.089844 159.304688 C 115.738281 157.863281 119.75 155.695312 123.117188 152.808594 C 126.488281 149.921875 129.132812 146.3125 130.980469 142.0625 C 132.183594 139.414062 132.984375 136.527344 133.464844 133.480469 C 133.945312 129.953125 136.914062 127.386719 140.441406 127.386719 L 175.492188 127.386719 C 179.664062 127.386719 182.789062 131.074219 182.46875 135.246094 C 181.746094 143.988281 179.664062 151.765625 176.375 158.664062 C 172.042969 167.566406 166.109375 174.867188 158.410156 180.800781 C 150.707031 186.734375 141.566406 191.066406 130.898438 194.113281 C 120.230469 197.160156 108.441406 198.605469 95.527344 198.605469 M 59.917969 79.101562 L 123.921875 79.101562 C 128.089844 79.101562 131.378906 75.492188 130.898438 71.324219 C 130.496094 67.3125 129.695312 63.703125 128.574219 60.414062 C 126.808594 55.121094 124.320312 50.871094 121.195312 47.5 C 118.066406 44.132812 114.296875 41.726562 109.886719 40.125 C 105.472656 38.519531 100.5 37.796875 94.96875 37.796875 C 85.824219 37.796875 78.285156 39.320312 72.1875 42.289062 C 66.09375 45.257812 61.441406 49.828125 58.152344 55.921875 C 55.988281 60.09375 54.222656 64.90625 52.941406 70.601562 C 51.976562 74.929688 55.347656 79.101562 59.835938 79.101562 " clip-rule="nonzero"/></clipPath><clipPath id="def62f815d"><rect x="0" width="183" y="0" height="199"/></clipPath><clipPath id="6d7daf7ba4"><path d="M 173 904 L 352.589844 904 L 352.589844 1168 L 173 1168 Z M 173 904 " clip-rule="nonzero"/></clipPath><clipPath id="aa052031cb"><path d="M 337.792969 1129.546875 C 334.664062 1129.546875 331.855469 1128.503906 329.371094 1126.5 C 328.488281 1125.777344 327.847656 1124.894531 327.363281 1123.933594 L 327.363281 1124.09375 L 325.039062 1120.164062 L 284.9375 1052.148438 C 283.894531 1050.386719 284.136719 1048.21875 285.417969 1046.695312 L 337.710938 986.863281 C 341.640625 982.292969 338.433594 975.234375 332.417969 975.234375 L 292.554688 975.234375 C 290.472656 975.234375 288.546875 976.117188 287.183594 977.722656 L 228.070312 1048.058594 C 226.386719 1050.066406 223.179688 1048.863281 223.179688 1046.296875 L 223.179688 910.992188 C 223.179688 907.140625 220.050781 904.011719 216.203125 904.011719 L 180.269531 904.011719 C 176.421875 904.011719 173.292969 907.140625 173.292969 910.992188 L 173.292969 1157.054688 C 173.292969 1160.90625 176.421875 1164.035156 180.269531 1164.035156 L 216.203125 1164.035156 C 220.050781 1164.035156 223.179688 1160.90625 223.179688 1157.054688 L 223.179688 1113.90625 C 223.179688 1112.0625 223.980469 1110.21875 225.265625 1108.933594 L 246.039062 1088.722656 C 248.285156 1086.558594 251.894531 1087.117188 253.417969 1089.847656 L 286.539062 1150.480469 L 286.621094 1150.398438 C 287.824219 1152.566406 289.1875 1154.570312 290.871094 1156.335938 C 294.480469 1160.023438 298.972656 1162.910156 304.347656 1164.917969 C 309.71875 1166.921875 315.894531 1167.964844 322.875 1167.964844 C 330.09375 1167.964844 336.1875 1167.324219 341.160156 1165.960938 C 343.644531 1165.316406 345.890625 1164.675781 347.738281 1164.035156 C 350.542969 1163.070312 352.308594 1160.425781 352.308594 1157.457031 L 352.308594 1136.523438 C 352.308594 1132.675781 349.179688 1129.546875 345.332031 1129.546875 Z M 337.792969 1129.546875 " clip-rule="nonzero"/></clipPath><clipPath id="f426b378b3"><path d="M 0.28125 0 L 179.320312 0 L 179.320312 264 L 0.28125 264 Z M 0.28125 0 " clip-rule="nonzero"/></clipPath><clipPath id="5abf6041ec"><path d="M 164.792969 225.546875 C 161.664062 225.546875 158.855469 224.503906 156.371094 222.5 C 155.488281 221.777344 154.847656 220.894531 154.363281 219.933594 L 154.363281 220.09375 L 152.039062 216.164062 L 111.9375 148.148438 C 110.894531 146.386719 111.136719 144.21875 112.417969 142.695312 L 164.710938 82.863281 C 168.640625 78.292969 165.433594 71.234375 159.417969 71.234375 L 119.554688 71.234375 C 117.472656 71.234375 115.546875 72.117188 114.183594 73.722656 L 55.070312 144.058594 C 53.386719 146.066406 50.179688 144.863281 50.179688 142.296875 L 50.179688 6.992188 C 50.179688 3.140625 47.050781 0.0117188 43.203125 0.0117188 L 7.269531 0.0117188 C 3.421875 0.0117188 0.292969 3.140625 0.292969 6.992188 L 0.292969 253.054688 C 0.292969 256.90625 3.421875 260.035156 7.269531 260.035156 L 43.203125 260.035156 C 47.050781 260.035156 50.179688 256.90625 50.179688 253.054688 L 50.179688 209.90625 C 50.179688 208.0625 50.980469 206.21875 52.265625 204.933594 L 73.039062 184.722656 C 75.285156 182.558594 78.894531 183.117188 80.417969 185.847656 L 113.539062 246.480469 L 113.621094 246.398438 C 114.824219 248.566406 116.1875 250.570312 117.871094 252.335938 C 121.480469 256.023438 125.972656 258.910156 131.347656 260.917969 C 136.71875 262.921875 142.894531 263.964844 149.875 263.964844 C 157.09375 263.964844 163.1875 263.324219 168.160156 261.960938 C 170.644531 261.316406 172.890625 260.675781 174.738281 260.035156 C 177.542969 259.070312 179.308594 256.425781 179.308594 253.457031 L 179.308594 232.523438 C 179.308594 228.675781 176.179688 225.546875 172.332031 225.546875 Z M 164.792969 225.546875 " clip-rule="nonzero"/></clipPath><clipPath id="4fdba9117b"><rect x="0" width="180" y="0" height="264"/></clipPath></defs><g clip-path="url(#a8e46df9c1)"><g clip-path="url(#e9916f1421)"><g transform="matrix(1, 0, 0, 1, 516, 331)"><g clip-path="url(#78c5673379)"><g clip-path="url(#d6566ca256)"><g clip-path="url(#1ffb4936cb)"><rect x="-846" width="2160" fill="#ffffff" height="2159.999904" y="-660.999985" fill-opacity="1"/></g></g></g></g></g></g><g clip-path="url(#4396b73c54)"><g clip-path="url(#0e544c49b9)"><g transform="matrix(1, 0, 0, 1, 636, 357)"><g clip-path="url(#b312a92ba1)"><g clip-path="url(#aa8811007f)"><g clip-path="url(#bbb43e67c0)"><rect x="-966" width="2160" fill="#ffffff" height="2159.999904" y="-686.999985" fill-opacity="1"/></g></g></g></g></g></g><g clip-path="url(#a3d434db51)"><g clip-path="url(#bedfbcf0cc)"><g transform="matrix(1, 0, 0, 1, 376, 975)"><g clip-path="url(#776c6933d4)"><g clip-path="url(#ed98809131)"><g clip-path="url(#bdfa5596d3)"><rect x="-706" width="2160" fill="#ffffff" height="2159.999904" y="-1304.999985" fill-opacity="1"/></g></g></g></g></g></g><g clip-path="url(#aa077a4265)"><g clip-path="url(#92f6709307)"><g transform="matrix(1, 0, 0, 1, 582, 970)"><g clip-path="url(#ebfa1e7f93)"><g clip-path="url(#e0b22d92fd)"><g clip-path="url(#81c2634274)"><rect x="-912" width="2160" fill="#ffffff" height="2159.999904" y="-1299.999985" fill-opacity="1"/></g></g></g></g></g></g><g clip-path="url(#a0486a82ee)"><g clip-path="url(#720e43ddfc)"><g transform="matrix(1, 0, 0, 1, 792, 904)"><g clip-path="url(#20d064b936)"><g clip-path="url(#cae8843698)"><g clip-path="url(#52ab361bd3)"><rect x="-1122" width="2160" fill="#ffffff" height="2159.999904" y="-1233.999985" fill-opacity="1"/></g></g></g></g></g></g><g clip-path="url(#6ecc80453f)"><g clip-path="url(#9cdcd30166)"><g transform="matrix(1, 0, 0, 1, 1020, 970)"><g clip-path="url(#41ab3ca777)"><g clip-path="url(#679c1b1b71)"><g clip-path="url(#cd48078f21)"><rect x="-1350" width="2160" fill="#ffffff" height="2159.999904" y="-1299.999985" fill-opacity="1"/></g></g></g></g></g></g><g clip-path="url(#216fb5fa3f)"><g clip-path="url(#c1f6d08ea3)"><g transform="matrix(1, 0, 0, 1, 1144, 970)"><g clip-path="url(#def62f815d)"><g clip-path="url(#fe31608bf2)"><g clip-path="url(#9962572e29)"><rect x="-1474" width="2160" fill="#ffffff" height="2159.999904" y="-1299.999985" fill-opacity="1"/></g></g></g></g></g></g><g clip-path="url(#6d7daf7ba4)"><g clip-path="url(#aa052031cb)"><g transform="matrix(1, 0, 0, 1, 173, 904)"><g clip-path="url(#4fdba9117b)"><g clip-path="url(#f426b378b3)"><g clip-path="url(#5abf6041ec)"><rect x="-503" width="2160" fill="#ffffff" height="2159.999904" y="-1233.999985" fill-opacity="1"/></g></g></g></g></g></g></svg>