<svg xmlns="http://www.w3.org/2000/svg" xmlns:xlink="http://www.w3.org/1999/xlink" width="2000" zoomAndPan="magnify" viewBox="0 0 1500 1499.999933" height="2000" preserveAspectRatio="xMidYMid meet" version="1.0"><defs><clipPath id="52042e7417"><path d="M 315 1013 L 515 1013 L 515 1239.390625 L 315 1239.390625 Z M 315 1013 " clip-rule="nonzero"/></clipPath><clipPath id="8b4cb9e0b4"><path d="M 387.8125 1239.035156 C 365.46875 1239.035156 347.777344 1232.898438 334.6875 1220.625 C 321.597656 1208.347656 315.027344 1188.546875 315.027344 1161.21875 L 315.027344 1022.078125 C 315.027344 1017.570312 318.671875 1013.925781 323.179688 1013.925781 L 365.035156 1013.925781 C 369.542969 1013.925781 373.1875 1017.570312 373.1875 1022.078125 L 373.1875 1151.628906 C 373.1875 1158.867188 374.003906 1164.957031 375.679688 1169.847656 C 377.359375 1174.738281 379.804688 1178.71875 383.015625 1181.785156 C 386.230469 1184.855469 390.207031 1187.0625 394.957031 1188.5 C 399.703125 1189.9375 405.023438 1190.609375 410.875 1190.609375 C 419.503906 1190.609375 427.320312 1188.5 434.320312 1184.328125 C 441.320312 1180.15625 446.738281 1174.355469 450.621094 1166.972656 C 454.503906 1159.585938 456.472656 1151.292969 456.472656 1142.085938 L 456.472656 1022.078125 C 456.472656 1017.570312 460.113281 1013.925781 464.621094 1013.925781 L 506.480469 1013.925781 C 510.984375 1013.925781 514.628906 1017.570312 514.628906 1022.078125 L 514.628906 1225.898438 C 514.628906 1230.40625 510.984375 1234.046875 506.480469 1234.046875 L 474.019531 1234.046875 C 469.945312 1234.046875 466.492188 1231.074219 465.964844 1227.046875 L 462.75 1203.9375 L 459.828125 1203.9375 C 454.554688 1210.890625 448.320312 1217.074219 441.222656 1222.347656 C 434.128906 1227.625 426.074219 1231.746094 417.15625 1234.71875 C 408.238281 1237.691406 398.457031 1239.082031 387.859375 1239.082031 " clip-rule="nonzero"/></clipPath><clipPath id="280743030c"><path d="M 0 0.761719 L 199.800781 0.761719 L 199.800781 226.121094 L 0 226.121094 Z M 0 0.761719 " clip-rule="nonzero"/></clipPath><clipPath id="33792d7984"><path d="M 72.8125 226.035156 C 50.46875 226.035156 32.777344 219.898438 19.6875 207.625 C 6.597656 195.347656 0.0273438 175.546875 0.0273438 148.21875 L 0.0273438 9.078125 C 0.0273438 4.570312 3.671875 0.925781 8.179688 0.925781 L 50.035156 0.925781 C 54.542969 0.925781 58.1875 4.570312 58.1875 9.078125 L 58.1875 138.628906 C 58.1875 145.867188 59.003906 151.957031 60.679688 156.847656 C 62.359375 161.738281 64.804688 165.71875 68.015625 168.785156 C 71.230469 171.855469 75.207031 174.0625 79.957031 175.5 C 84.703125 176.9375 90.023438 177.609375 95.875 177.609375 C 104.503906 177.609375 112.320312 175.5 119.320312 171.328125 C 126.320312 167.15625 131.738281 161.355469 135.621094 153.972656 C 139.503906 146.585938 141.472656 138.292969 141.472656 129.085938 L 141.472656 9.078125 C 141.472656 4.570312 145.113281 0.925781 149.621094 0.925781 L 191.480469 0.925781 C 195.984375 0.925781 199.628906 4.570312 199.628906 9.078125 L 199.628906 212.898438 C 199.628906 217.40625 195.984375 221.046875 191.480469 221.046875 L 159.019531 221.046875 C 154.945312 221.046875 151.492188 218.074219 150.964844 214.046875 L 147.75 190.9375 L 144.828125 190.9375 C 139.554688 197.890625 133.320312 204.074219 126.222656 209.347656 C 119.128906 214.625 111.074219 218.746094 102.15625 221.71875 C 93.238281 224.691406 83.457031 226.082031 72.859375 226.082031 " clip-rule="nonzero"/></clipPath><clipPath id="684c1bdd96"><rect x="0" width="200" y="0" height="227"/></clipPath><clipPath id="2524579f9e"><path d="M 555 1008 L 782.734375 1008 L 782.734375 1239 L 555 1239 Z M 555 1008 " clip-rule="nonzero"/></clipPath><clipPath id="6a73ec17cd"><path d="M 626.34375 1238.507812 C 619.105469 1238.507812 611.339844 1237.691406 603.140625 1236.015625 C 594.941406 1234.335938 587.171875 1231.316406 579.933594 1227 C 572.695312 1222.683594 566.746094 1216.402344 562.144531 1208.15625 C 557.542969 1199.910156 555.242188 1189.410156 555.242188 1176.5625 C 555.242188 1161.21875 558.597656 1148.558594 565.261719 1138.492188 C 571.925781 1128.421875 581.515625 1120.558594 593.933594 1114.855469 C 606.351562 1109.148438 621.214844 1105.167969 638.523438 1102.914062 C 653.578125 1100.996094 669.976562 1099.894531 687.71875 1099.605469 C 692.175781 1099.558594 695.820312 1095.960938 695.820312 1091.503906 L 695.820312 1083.257812 C 695.820312 1076.832031 694.765625 1071.269531 692.703125 1066.523438 C 690.640625 1061.777344 686.996094 1058.035156 681.820312 1055.207031 C 676.640625 1052.378906 669.496094 1051.035156 660.292969 1051.035156 C 651.085938 1051.035156 643.605469 1052.140625 637.902344 1054.394531 C 632.195312 1056.648438 628.121094 1059.476562 625.769531 1062.976562 C 623.996094 1065.179688 623.085938 1068.539062 622.652344 1071.652344 C 621.980469 1076.160156 618.195312 1079.515625 613.6875 1079.515625 L 574.660156 1079.515625 C 569.527344 1079.515625 565.359375 1075.203125 565.550781 1070.121094 C 566.027344 1055.542969 570.582031 1045.234375 577.054688 1037.46875 C 584.871094 1028.117188 595.898438 1020.925781 610.089844 1015.890625 C 624.285156 1010.859375 640.921875 1008.363281 659.910156 1008.363281 C 680.285156 1008.363281 697.355469 1011 711.164062 1016.324219 C 724.972656 1021.644531 735.566406 1029.414062 742.953125 1039.769531 C 750.335938 1050.125 754.027344 1063.070312 754.027344 1078.703125 L 754.027344 1178.671875 C 754.027344 1183.703125 755.515625 1187.398438 758.4375 1189.746094 C 761.363281 1192.09375 764.625 1193.292969 768.265625 1193.292969 L 773.925781 1193.292969 C 778.433594 1193.292969 782.074219 1196.9375 782.074219 1201.445312 L 782.074219 1225.898438 C 782.074219 1229.300781 779.964844 1232.464844 776.753906 1233.570312 C 774.597656 1234.289062 772.054688 1235.054688 769.128906 1235.824219 C 763.28125 1237.355469 756.136719 1238.125 747.792969 1238.125 C 739.691406 1238.125 732.5 1236.925781 726.265625 1234.574219 C 720.035156 1232.226562 714.757812 1228.871094 710.585938 1224.507812 C 706.417969 1220.144531 703.492188 1214.964844 701.8125 1208.828125 L 698.890625 1208.828125 C 694.140625 1214.679688 688.339844 1219.855469 681.53125 1224.316406 C 674.722656 1228.773438 666.765625 1232.273438 657.703125 1234.769531 C 648.640625 1237.261719 638.238281 1238.554688 626.539062 1238.554688 M 646.195312 1194.636719 C 654.011719 1194.636719 660.964844 1193.484375 667.101562 1191.089844 C 673.238281 1188.691406 678.414062 1185.527344 682.585938 1181.453125 C 686.757812 1177.375 690.066406 1172.4375 692.414062 1166.585938 C 694.765625 1160.738281 695.964844 1154.457031 695.964844 1147.746094 L 695.964844 1135.566406 C 680.332031 1135.566406 666.382812 1136.621094 654.105469 1138.683594 C 641.832031 1140.746094 632.148438 1144.339844 625.003906 1149.375 C 617.859375 1154.410156 614.3125 1161.363281 614.3125 1170.28125 C 614.3125 1175.3125 615.558594 1179.628906 618.097656 1183.273438 C 620.640625 1186.917969 624.234375 1189.699219 628.984375 1191.664062 C 633.730469 1193.628906 639.433594 1194.589844 646.148438 1194.589844 " clip-rule="nonzero"/></clipPath><clipPath id="d22da3ac38"><path d="M 0.121094 0.238281 L 227.160156 0.238281 L 227.160156 230.640625 L 0.121094 230.640625 Z M 0.121094 0.238281 " clip-rule="nonzero"/></clipPath><clipPath id="06443d7333"><path d="M 71.34375 230.507812 C 64.105469 230.507812 56.339844 229.691406 48.140625 228.015625 C 39.941406 226.335938 32.171875 223.316406 24.933594 219 C 17.695312 214.683594 11.746094 208.402344 7.144531 200.15625 C 2.542969 191.910156 0.242188 181.410156 0.242188 168.5625 C 0.242188 153.21875 3.597656 140.558594 10.261719 130.492188 C 16.925781 120.421875 26.515625 112.558594 38.933594 106.855469 C 51.351562 101.148438 66.214844 97.167969 83.523438 94.914062 C 98.578125 92.996094 114.976562 91.894531 132.71875 91.605469 C 137.175781 91.558594 140.820312 87.960938 140.820312 83.503906 L 140.820312 75.257812 C 140.820312 68.832031 139.765625 63.269531 137.703125 58.523438 C 135.640625 53.777344 131.996094 50.035156 126.820312 47.207031 C 121.640625 44.378906 114.496094 43.035156 105.292969 43.035156 C 96.085938 43.035156 88.605469 44.140625 82.902344 46.394531 C 77.195312 48.648438 73.121094 51.476562 70.769531 54.976562 C 68.996094 57.179688 68.085938 60.539062 67.652344 63.652344 C 66.980469 68.160156 63.195312 71.515625 58.6875 71.515625 L 19.660156 71.515625 C 14.527344 71.515625 10.359375 67.203125 10.550781 62.121094 C 11.027344 47.542969 15.582031 37.234375 22.054688 29.46875 C 29.871094 20.117188 40.898438 12.925781 55.089844 7.890625 C 69.285156 2.859375 85.921875 0.363281 104.910156 0.363281 C 125.285156 0.363281 142.355469 3 156.164062 8.324219 C 169.972656 13.644531 180.566406 21.414062 187.953125 31.769531 C 195.335938 42.125 199.027344 55.070312 199.027344 70.703125 L 199.027344 170.671875 C 199.027344 175.703125 200.515625 179.398438 203.4375 181.746094 C 206.363281 184.09375 209.625 185.292969 213.265625 185.292969 L 218.925781 185.292969 C 223.433594 185.292969 227.074219 188.9375 227.074219 193.445312 L 227.074219 217.898438 C 227.074219 221.300781 224.964844 224.464844 221.753906 225.570312 C 219.597656 226.289062 217.054688 227.054688 214.128906 227.824219 C 208.28125 229.355469 201.136719 230.125 192.792969 230.125 C 184.691406 230.125 177.5 228.925781 171.265625 226.574219 C 165.035156 224.226562 159.757812 220.871094 155.585938 216.507812 C 151.417969 212.144531 148.492188 206.964844 146.8125 200.828125 L 143.890625 200.828125 C 139.140625 206.679688 133.339844 211.855469 126.53125 216.316406 C 119.722656 220.773438 111.765625 224.273438 102.703125 226.769531 C 93.640625 229.261719 83.238281 230.554688 71.539062 230.554688 M 91.195312 186.636719 C 99.011719 186.636719 105.964844 185.484375 112.101562 183.089844 C 118.238281 180.691406 123.414062 177.527344 127.585938 173.453125 C 131.757812 169.375 135.066406 164.4375 137.414062 158.585938 C 139.765625 152.738281 140.964844 146.457031 140.964844 139.746094 L 140.964844 127.566406 C 125.332031 127.566406 111.382812 128.621094 99.105469 130.683594 C 86.832031 132.746094 77.148438 136.339844 70.003906 141.375 C 62.859375 146.410156 59.3125 153.363281 59.3125 162.28125 C 59.3125 167.3125 60.558594 171.628906 63.097656 175.273438 C 65.640625 178.917969 69.234375 181.699219 73.984375 183.664062 C 78.730469 185.628906 84.433594 186.589844 91.148438 186.589844 " clip-rule="nonzero"/></clipPath><clipPath id="cc6f8be711"><rect x="0" width="228" y="0" height="231"/></clipPath><clipPath id="1495858ca3"><path d="M 799.417969 931 L 1012 931 L 1012 1239.390625 L 799.417969 1239.390625 Z M 799.417969 931 " clip-rule="nonzero"/></clipPath><clipPath id="98e9e746a9"><path d="M 888.710938 1239.035156 C 870.585938 1239.035156 854.90625 1234.910156 841.625 1226.710938 C 828.34375 1218.515625 818.132812 1205.855469 810.84375 1188.835938 C 803.554688 1171.8125 799.960938 1150.046875 799.960938 1123.53125 C 799.960938 1097.015625 803.652344 1075.34375 811.035156 1058.46875 C 818.417969 1041.589844 828.632812 1029.125 841.578125 1021.023438 C 854.523438 1012.917969 869.53125 1008.890625 886.550781 1008.890625 C 896.046875 1008.890625 904.914062 1009.945312 913.113281 1012.007812 C 921.3125 1014.070312 928.601562 1017.378906 934.882812 1021.835938 C 941.164062 1026.296875 946.53125 1031.761719 950.992188 1038.140625 L 953.484375 1038.140625 L 953.484375 939.65625 C 953.484375 935.148438 957.128906 931.507812 961.636719 931.507812 L 1003.492188 931.507812 C 1008 931.507812 1011.644531 935.148438 1011.644531 939.65625 L 1011.644531 1225.898438 C 1011.644531 1230.40625 1008 1234.046875 1003.492188 1234.046875 L 970.9375 1234.046875 C 966.910156 1234.046875 963.507812 1231.125 962.882812 1227.144531 L 959.335938 1204.320312 L 956.410156 1204.320312 C 949.171875 1216.019531 939.675781 1224.746094 927.976562 1230.5 C 916.277344 1236.253906 903.140625 1239.082031 888.660156 1239.082031 M 907.074219 1191.375 C 917.957031 1191.375 926.777344 1188.882812 933.636719 1183.847656 C 940.492188 1178.8125 945.574219 1171.574219 948.882812 1162.082031 C 952.191406 1152.585938 953.917969 1141.320312 953.917969 1128.183594 L 953.917969 1120.65625 C 953.917969 1110.921875 953.003906 1101.957031 951.183594 1093.902344 C 949.363281 1085.847656 946.53125 1079.039062 942.601562 1073.621094 C 938.667969 1068.203125 933.828125 1063.980469 927.976562 1061.058594 C 922.128906 1058.132812 915.128906 1056.648438 907.074219 1056.648438 C 895.375 1056.648438 886.023438 1058.949219 879.023438 1063.550781 C 872.023438 1068.152344 867.039062 1075.152344 863.96875 1084.457031 C 860.898438 1093.757812 859.367188 1105.457031 859.367188 1119.410156 L 859.367188 1129.046875 C 859.367188 1143 860.898438 1154.554688 863.96875 1163.757812 C 867.039062 1172.964844 872.070312 1179.867188 879.023438 1184.472656 C 885.976562 1189.074219 895.324219 1191.375 907.074219 1191.375 " clip-rule="nonzero"/></clipPath><clipPath id="d8b980c79e"><path d="M 0.921875 0.441406 L 212.839844 0.441406 L 212.839844 308.121094 L 0.921875 308.121094 Z M 0.921875 0.441406 " clip-rule="nonzero"/></clipPath><clipPath id="72bf4b3c0f"><path d="M 89.710938 308.035156 C 71.585938 308.035156 55.90625 303.910156 42.625 295.710938 C 29.34375 287.515625 19.132812 274.855469 11.84375 257.835938 C 4.554688 240.8125 0.960938 219.046875 0.960938 192.53125 C 0.960938 166.015625 4.652344 144.34375 12.035156 127.46875 C 19.417969 110.589844 29.632812 98.125 42.578125 90.023438 C 55.523438 81.917969 70.53125 77.890625 87.550781 77.890625 C 97.046875 77.890625 105.914062 78.945312 114.113281 81.007812 C 122.3125 83.070312 129.601562 86.378906 135.882812 90.835938 C 142.164062 95.296875 147.53125 100.761719 151.992188 107.140625 L 154.484375 107.140625 L 154.484375 8.65625 C 154.484375 4.148438 158.128906 0.507812 162.636719 0.507812 L 204.492188 0.507812 C 209 0.507812 212.644531 4.148438 212.644531 8.65625 L 212.644531 294.898438 C 212.644531 299.40625 209 303.046875 204.492188 303.046875 L 171.9375 303.046875 C 167.910156 303.046875 164.507812 300.125 163.882812 296.144531 L 160.335938 273.320312 L 157.410156 273.320312 C 150.171875 285.019531 140.675781 293.746094 128.976562 299.5 C 117.277344 305.253906 104.140625 308.082031 89.660156 308.082031 M 108.074219 260.375 C 118.957031 260.375 127.777344 257.882812 134.636719 252.847656 C 141.492188 247.8125 146.574219 240.574219 149.882812 231.082031 C 153.191406 221.585938 154.917969 210.320312 154.917969 197.183594 L 154.917969 189.65625 C 154.917969 179.921875 154.003906 170.957031 152.183594 162.902344 C 150.363281 154.847656 147.53125 148.039062 143.601562 142.621094 C 139.667969 137.203125 134.828125 132.980469 128.976562 130.058594 C 123.128906 127.132812 116.128906 125.648438 108.074219 125.648438 C 96.375 125.648438 87.023438 127.949219 80.023438 132.550781 C 73.023438 137.152344 68.039062 144.152344 64.96875 153.457031 C 61.898438 162.757812 60.367188 174.457031 60.367188 188.410156 L 60.367188 198.046875 C 60.367188 212 61.898438 223.554688 64.96875 232.757812 C 68.039062 241.964844 73.070312 248.867188 80.023438 253.472656 C 86.976562 258.074219 96.324219 260.375 108.074219 260.375 " clip-rule="nonzero"/></clipPath><clipPath id="574e35e586"><rect x="0" width="213" y="0" height="309"/></clipPath><clipPath id="6216aef132"><path d="M 78 931 L 287 931 L 287 1239 L 78 1239 Z M 78 931 " clip-rule="nonzero"/></clipPath><clipPath id="03ecbfebf5"><path d="M 269.816406 1193.820312 C 266.171875 1193.820312 262.910156 1192.671875 259.984375 1190.273438 C 258.980469 1189.457031 258.257812 1188.402344 257.636719 1187.253906 L 257.636719 1187.398438 L 254.953125 1182.792969 L 208.203125 1103.492188 C 207.003906 1101.476562 207.246094 1098.933594 208.777344 1097.160156 L 269.71875 1027.445312 C 274.320312 1022.171875 270.582031 1013.925781 263.582031 1013.925781 L 217.121094 1013.925781 C 214.722656 1013.925781 212.421875 1014.980469 210.886719 1016.851562 L 142.035156 1098.839844 C 140.121094 1101.140625 136.378906 1099.75 136.378906 1096.777344 L 136.378906 939.226562 C 136.378906 934.71875 132.734375 931.074219 128.226562 931.074219 L 86.324219 931.074219 C 81.816406 931.074219 78.171875 934.71875 78.171875 939.226562 L 78.171875 1225.898438 C 78.171875 1230.40625 81.816406 1234.046875 86.324219 1234.046875 L 128.179688 1234.046875 C 132.6875 1234.046875 136.332031 1230.40625 136.332031 1225.898438 L 136.332031 1175.554688 C 136.332031 1173.347656 137.242188 1171.238281 138.777344 1169.703125 L 162.988281 1146.113281 C 165.578125 1143.621094 169.796875 1144.246094 171.523438 1147.410156 L 210.121094 1218.082031 L 210.21875 1218.035156 C 211.609375 1220.574219 213.140625 1222.925781 215.15625 1224.988281 C 219.328125 1229.300781 224.554688 1232.65625 230.835938 1235.007812 C 237.113281 1237.355469 244.308594 1238.554688 252.363281 1238.554688 C 260.703125 1238.554688 267.847656 1237.789062 273.699219 1236.253906 C 276.625 1235.488281 279.164062 1234.71875 281.320312 1234 C 284.582031 1232.898438 286.644531 1229.78125 286.644531 1226.328125 L 286.644531 1201.875 C 286.644531 1197.371094 283 1193.726562 278.492188 1193.726562 Z M 269.816406 1193.820312 " clip-rule="nonzero"/></clipPath><clipPath id="50e8c06a79"><path d="M 0 0 L 208.800781 0 L 208.800781 307.640625 L 0 307.640625 Z M 0 0 " clip-rule="nonzero"/></clipPath><clipPath id="4bc94c6ebd"><path d="M 191.816406 262.820312 C 188.171875 262.820312 184.910156 261.671875 181.984375 259.273438 C 180.980469 258.457031 180.257812 257.402344 179.636719 256.253906 L 179.636719 256.398438 L 176.953125 251.792969 L 130.203125 172.492188 C 129.003906 170.476562 129.246094 167.933594 130.777344 166.160156 L 191.71875 96.445312 C 196.320312 91.171875 192.582031 82.925781 185.582031 82.925781 L 139.121094 82.925781 C 136.722656 82.925781 134.421875 83.980469 132.886719 85.851562 L 64.035156 167.839844 C 62.121094 170.140625 58.378906 168.75 58.378906 165.777344 L 58.378906 8.226562 C 58.378906 3.71875 54.734375 0.0742188 50.226562 0.0742188 L 8.324219 0.0742188 C 3.816406 0.0742188 0.171875 3.71875 0.171875 8.226562 L 0.171875 294.898438 C 0.171875 299.40625 3.816406 303.046875 8.324219 303.046875 L 50.179688 303.046875 C 54.6875 303.046875 58.332031 299.40625 58.332031 294.898438 L 58.332031 244.554688 C 58.332031 242.347656 59.242188 240.238281 60.777344 238.703125 L 84.988281 215.113281 C 87.578125 212.621094 91.796875 213.246094 93.523438 216.410156 L 132.121094 287.082031 L 132.21875 287.035156 C 133.609375 289.574219 135.140625 291.925781 137.15625 293.988281 C 141.328125 298.300781 146.554688 301.65625 152.835938 304.007812 C 159.113281 306.355469 166.308594 307.554688 174.363281 307.554688 C 182.703125 307.554688 189.847656 306.789062 195.699219 305.253906 C 198.625 304.488281 201.164062 303.71875 203.320312 303 C 206.582031 301.898438 208.644531 298.78125 208.644531 295.328125 L 208.644531 270.875 C 208.644531 266.371094 205 262.726562 200.492188 262.726562 Z M 191.816406 262.820312 " clip-rule="nonzero"/></clipPath><clipPath id="bd4b658992"><rect x="0" width="209" y="0" height="308"/></clipPath><clipPath id="08b4faa138"><path d="M 479.042969 260.105469 L 1025 260.105469 L 1025 806 L 479.042969 806 Z M 479.042969 260.105469 " clip-rule="nonzero"/></clipPath><clipPath id="342682b6b4"><path d="M 966.105469 511.320312 L 966.105469 734.367188 C 966.105469 741.464844 960.351562 747.167969 953.304688 747.167969 L 550.792969 747.167969 C 543.695312 747.167969 537.992188 741.417969 537.992188 734.367188 L 537.992188 331.855469 C 537.992188 324.761719 543.746094 319.054688 550.792969 319.054688 L 953.304688 319.054688 C 960.398438 319.054688 966.105469 324.808594 966.105469 331.855469 L 966.105469 340.296875 C 966.105469 343.460938 969.894531 345.089844 972.195312 342.933594 L 1012.902344 304.863281 C 1015.347656 302.609375 1016.066406 298.871094 1014.339844 295.992188 C 1002.066406 275.039062 979.289062 260.945312 953.304688 260.945312 L 550.792969 260.945312 C 511.621094 260.945312 479.878906 292.683594 479.878906 331.855469 L 479.878906 734.367188 C 479.878906 773.539062 511.621094 805.28125 550.792969 805.28125 L 953.304688 805.28125 C 992.476562 805.28125 1024.214844 773.539062 1024.214844 734.367188 L 1024.214844 462.65625 C 1024.214844 458.628906 1019.375 456.519531 1016.449219 459.296875 L 969.75 502.976562 C 967.449219 505.136719 966.105469 508.15625 966.105469 511.320312 " clip-rule="nonzero"/></clipPath><clipPath id="7f32951e1d"><path d="M 0.761719 0.878906 L 545.320312 0.878906 L 545.320312 545.441406 L 0.761719 545.441406 Z M 0.761719 0.878906 " clip-rule="nonzero"/></clipPath><clipPath id="9b49182149"><path d="M 487.105469 251.320312 L 487.105469 474.367188 C 487.105469 481.464844 481.351562 487.167969 474.304688 487.167969 L 71.792969 487.167969 C 64.695312 487.167969 58.992188 481.417969 58.992188 474.367188 L 58.992188 71.855469 C 58.992188 64.761719 64.746094 59.054688 71.792969 59.054688 L 474.304688 59.054688 C 481.398438 59.054688 487.105469 64.808594 487.105469 71.855469 L 487.105469 80.296875 C 487.105469 83.460938 490.894531 85.089844 493.195312 82.933594 L 533.902344 44.863281 C 536.347656 42.609375 537.066406 38.871094 535.339844 35.992188 C 523.066406 15.039062 500.289062 0.945312 474.304688 0.945312 L 71.792969 0.945312 C 32.621094 0.945312 0.878906 32.683594 0.878906 71.855469 L 0.878906 474.367188 C 0.878906 513.539062 32.621094 545.28125 71.792969 545.28125 L 474.304688 545.28125 C 513.476562 545.28125 545.214844 513.539062 545.214844 474.367188 L 545.214844 202.65625 C 545.214844 198.628906 540.375 196.519531 537.449219 199.296875 L 490.75 242.976562 C 488.449219 245.136719 487.105469 248.15625 487.105469 251.320312 " clip-rule="nonzero"/></clipPath><clipPath id="e448254cd7"><rect x="0" width="546" y="0" height="546"/></clipPath><clipPath id="06cc71f591"><path d="M 619 291 L 1110 291 L 1110 648 L 619 648 Z M 619 291 " clip-rule="nonzero"/></clipPath><clipPath id="106df206cd"><path d="M 753.511719 647.921875 C 741.429688 647.921875 729.296875 643.507812 719.851562 634.734375 L 628.992188 553.65625 C 617.007812 542.964844 616 524.601562 626.691406 512.617188 C 637.382812 500.628906 655.746094 499.621094 667.734375 510.265625 L 753.320312 586.742188 L 1060.464844 299.492188 C 1072.164062 288.511719 1090.574219 289.136719 1101.554688 300.882812 C 1112.535156 312.628906 1111.910156 330.992188 1100.164062 341.972656 L 787.3125 634.496094 C 777.914062 643.414062 765.738281 647.921875 753.511719 647.921875 M 747.566406 592.109375 C 747.566406 592.160156 747.515625 592.160156 747.46875 592.207031 Z M 758.785156 591.582031 L 758.976562 591.773438 C 758.929688 591.726562 758.832031 591.679688 758.785156 591.582031 " clip-rule="nonzero"/></clipPath><clipPath id="360c6944f9"><path d="M 0 0 L 491 0 L 491 357 L 0 357 Z M 0 0 " clip-rule="nonzero"/></clipPath><clipPath id="0a044f2c04"><path d="M 134.511719 356.921875 C 122.429688 356.921875 110.296875 352.507812 100.851562 343.734375 L 9.992188 262.65625 C -1.992188 251.964844 -3 233.601562 7.691406 221.617188 C 18.382812 209.628906 36.746094 208.621094 48.734375 219.265625 L 134.320312 295.742188 L 441.464844 8.492188 C 453.164062 -2.488281 471.574219 -1.863281 482.554688 9.882812 C 493.535156 21.628906 492.910156 39.992188 481.164062 50.972656 L 168.3125 343.496094 C 158.914062 352.414062 146.738281 356.921875 134.511719 356.921875 M 128.566406 301.109375 C 128.566406 301.160156 128.515625 301.160156 128.46875 301.207031 Z M 139.785156 300.582031 L 139.976562 300.773438 C 139.929688 300.726562 139.832031 300.679688 139.785156 300.582031 " clip-rule="nonzero"/></clipPath><clipPath id="b4441f9ac1"><rect x="0" width="491" y="0" height="357"/></clipPath><clipPath id="4ad3fc86a1"><path d="M 1065.261719 1008.453125 L 1194 1008.453125 L 1194 1234.738281 L 1065.261719 1234.738281 Z M 1065.261719 1008.453125 " clip-rule="nonzero"/></clipPath><clipPath id="b277c1f2e9"><path d="M 1065.300781 1225.882812 L 1065.300781 1022.0625 C 1065.300781 1017.554688 1068.945312 1013.910156 1073.453125 1013.910156 L 1106.292969 1013.910156 C 1110.371094 1013.910156 1113.820312 1016.933594 1114.347656 1020.960938 L 1118.042969 1048.242188 L 1120.964844 1048.242188 C 1123.746094 1041 1127.390625 1034.382812 1131.851562 1028.34375 C 1136.308594 1022.300781 1141.917969 1017.554688 1148.582031 1013.910156 C 1155.246094 1010.265625 1163.0625 1008.492188 1171.980469 1008.492188 C 1176.582031 1008.445312 1181.523438 1009.261719 1185.550781 1010.21875 C 1190.34375 1011.371094 1193.75 1015.683594 1193.75 1020.625 L 1193.75 1057.253906 C 1193.75 1061.761719 1190.105469 1065.40625 1185.597656 1065.40625 L 1175.769531 1065.40625 C 1167.136719 1065.40625 1159.515625 1066.605469 1152.945312 1068.953125 C 1146.378906 1071.304688 1140.863281 1075.042969 1136.40625 1080.03125 C 1131.945312 1085.015625 1128.683594 1091.199219 1126.574219 1098.441406 C 1124.464844 1105.679688 1123.410156 1114.214844 1123.410156 1123.949219 L 1123.410156 1225.882812 C 1123.410156 1230.390625 1119.765625 1234.035156 1115.261719 1234.035156 L 1073.453125 1234.035156 C 1068.945312 1234.035156 1065.300781 1230.390625 1065.300781 1225.882812 " clip-rule="nonzero"/></clipPath><clipPath id="51f969f886"><path d="M 0.261719 0.453125 L 128.761719 0.453125 L 128.761719 226.078125 L 0.261719 226.078125 Z M 0.261719 0.453125 " clip-rule="nonzero"/></clipPath><clipPath id="2d1c1b4c26"><path d="M 0.300781 217.882812 L 0.300781 14.0625 C 0.300781 9.554688 3.945312 5.910156 8.453125 5.910156 L 41.292969 5.910156 C 45.371094 5.910156 48.820312 8.933594 49.347656 12.960938 L 53.042969 40.242188 L 55.964844 40.242188 C 58.746094 33 62.390625 26.382812 66.851562 20.34375 C 71.308594 14.300781 76.917969 9.554688 83.582031 5.910156 C 90.246094 2.265625 98.0625 0.492188 106.980469 0.492188 C 111.582031 0.445312 116.523438 1.261719 120.550781 2.21875 C 125.34375 3.371094 128.75 7.683594 128.75 12.625 L 128.75 49.253906 C 128.75 53.761719 125.105469 57.40625 120.597656 57.40625 L 110.769531 57.40625 C 102.136719 57.40625 94.515625 58.605469 87.945312 60.953125 C 81.378906 63.304688 75.863281 67.042969 71.40625 72.03125 C 66.945312 77.015625 63.683594 83.199219 61.574219 90.441406 C 59.464844 97.679688 58.410156 106.214844 58.410156 115.949219 L 58.410156 217.882812 C 58.410156 222.390625 54.765625 226.035156 50.261719 226.035156 L 8.453125 226.035156 C 3.945312 226.035156 0.300781 222.390625 0.300781 217.882812 " clip-rule="nonzero"/></clipPath><clipPath id="16d62d29f5"><rect x="0" width="129" y="0" height="227"/></clipPath><clipPath id="1ec0c21b73"><path d="M 1209 1008.453125 L 1422 1008.453125 L 1422 1240 L 1209 1240 Z M 1209 1008.453125 " clip-rule="nonzero"/></clipPath><clipPath id="d9977a4f24"><path d="M 1320.136719 1239.066406 C 1295.875 1239.066406 1275.496094 1234.945312 1259.050781 1226.746094 C 1242.605469 1218.546875 1230.1875 1205.890625 1221.796875 1188.867188 C 1213.40625 1171.847656 1209.234375 1150.222656 1209.234375 1123.996094 C 1209.234375 1097.480469 1213.40625 1075.808594 1221.796875 1058.933594 C 1230.1875 1042.054688 1242.511719 1029.492188 1258.8125 1021.246094 C 1275.113281 1013 1295.15625 1008.925781 1318.839844 1008.925781 C 1341.183594 1008.925781 1359.976562 1012.902344 1375.320312 1020.863281 C 1390.664062 1028.824219 1402.21875 1041.097656 1410.035156 1057.6875 C 1417.847656 1074.277344 1421.734375 1095.707031 1421.734375 1121.933594 L 1421.734375 1128.839844 C 1421.734375 1133.347656 1418.089844 1136.988281 1413.582031 1136.988281 L 1277.078125 1136.988281 C 1272.1875 1136.988281 1268.449219 1141.304688 1268.976562 1146.195312 C 1269.933594 1155.113281 1271.757812 1162.929688 1274.347656 1169.640625 C 1277.847656 1178.558594 1283.265625 1185.175781 1290.648438 1189.539062 C 1298.03125 1193.902344 1307.859375 1196.011719 1320.136719 1196.011719 C 1326.847656 1196.011719 1332.886719 1195.148438 1338.355469 1193.519531 C 1343.820312 1191.890625 1348.472656 1189.347656 1352.355469 1185.992188 C 1356.238281 1182.636719 1359.308594 1178.464844 1361.558594 1173.429688 C 1362.949219 1170.359375 1363.863281 1167.003906 1364.4375 1163.410156 C 1365.011719 1159.332031 1368.464844 1156.265625 1372.589844 1156.265625 L 1413.390625 1156.265625 C 1418.28125 1156.265625 1421.925781 1160.53125 1421.492188 1165.375 C 1420.628906 1175.539062 1418.234375 1184.648438 1414.347656 1192.65625 C 1409.316406 1202.964844 1402.363281 1211.546875 1393.398438 1218.402344 C 1384.429688 1225.257812 1373.785156 1230.390625 1361.417969 1233.890625 C 1349.046875 1237.390625 1335.285156 1239.117188 1320.183594 1239.117188 M 1278.804688 1100.117188 L 1353.363281 1100.117188 C 1358.203125 1100.117188 1362.039062 1095.898438 1361.511719 1091.058594 C 1361.03125 1086.40625 1360.121094 1082.140625 1358.828125 1078.351562 C 1356.71875 1072.214844 1353.890625 1067.179688 1350.246094 1063.296875 C 1346.601562 1059.414062 1342.238281 1056.535156 1337.058594 1054.714844 C 1331.882812 1052.890625 1326.128906 1051.980469 1319.703125 1051.980469 C 1309.105469 1051.980469 1300.238281 1053.707031 1293.140625 1057.207031 C 1286.046875 1060.707031 1280.578125 1066.027344 1276.839844 1073.125 C 1274.296875 1077.96875 1272.285156 1083.625 1270.796875 1090.195312 C 1269.695312 1095.277344 1273.628906 1100.117188 1278.804688 1100.117188 " clip-rule="nonzero"/></clipPath><clipPath id="91ca7b4893"><path d="M 0.121094 0.71875 L 213 0.71875 L 213 231.121094 L 0.121094 231.121094 Z M 0.121094 0.71875 " clip-rule="nonzero"/></clipPath><clipPath id="5cdb091c15"><path d="M 111.136719 231.066406 C 86.875 231.066406 66.496094 226.945312 50.050781 218.746094 C 33.605469 210.546875 21.1875 197.890625 12.796875 180.867188 C 4.40625 163.847656 0.234375 142.222656 0.234375 115.996094 C 0.234375 89.480469 4.40625 67.808594 12.796875 50.933594 C 21.1875 34.054688 33.511719 21.492188 49.8125 13.246094 C 66.113281 5 86.15625 0.925781 109.839844 0.925781 C 132.183594 0.925781 150.976562 4.902344 166.320312 12.863281 C 181.664062 20.824219 193.21875 33.097656 201.035156 49.6875 C 208.847656 66.277344 212.734375 87.707031 212.734375 113.933594 L 212.734375 120.839844 C 212.734375 125.347656 209.089844 128.988281 204.582031 128.988281 L 68.078125 128.988281 C 63.1875 128.988281 59.449219 133.304688 59.976562 138.195312 C 60.933594 147.113281 62.757812 154.929688 65.347656 161.640625 C 68.847656 170.558594 74.265625 177.175781 81.648438 181.539062 C 89.03125 185.902344 98.859375 188.011719 111.136719 188.011719 C 117.847656 188.011719 123.886719 187.148438 129.355469 185.519531 C 134.820312 183.890625 139.472656 181.347656 143.355469 177.992188 C 147.238281 174.636719 150.308594 170.464844 152.558594 165.429688 C 153.949219 162.359375 154.863281 159.003906 155.4375 155.410156 C 156.011719 151.332031 159.464844 148.265625 163.589844 148.265625 L 204.390625 148.265625 C 209.28125 148.265625 212.925781 152.53125 212.492188 157.375 C 211.628906 167.539062 209.234375 176.648438 205.347656 184.65625 C 200.316406 194.964844 193.363281 203.546875 184.398438 210.402344 C 175.429688 217.257812 164.785156 222.390625 152.417969 225.890625 C 140.046875 229.390625 126.285156 231.117188 111.183594 231.117188 M 69.804688 92.117188 L 144.363281 92.117188 C 149.203125 92.117188 153.039062 87.898438 152.511719 83.058594 C 152.03125 78.40625 151.121094 74.140625 149.828125 70.351562 C 147.71875 64.214844 144.890625 59.179688 141.246094 55.296875 C 137.601562 51.414062 133.238281 48.535156 128.058594 46.714844 C 122.882812 44.890625 117.128906 43.980469 110.703125 43.980469 C 100.105469 43.980469 91.238281 45.707031 84.140625 49.207031 C 77.046875 52.707031 71.578125 58.027344 67.839844 65.125 C 65.296875 69.96875 63.285156 75.625 61.796875 82.195312 C 60.695312 87.277344 64.628906 92.117188 69.804688 92.117188 " clip-rule="nonzero"/></clipPath><clipPath id="0f29fa1c83"><rect x="0" width="213" y="0" height="232"/></clipPath></defs><g clip-path="url(#52042e7417)"><g clip-path="url(#8b4cb9e0b4)"><g transform="matrix(1, 0, 0, 1, 315, 1013)"><g clip-path="url(#684c1bdd96)"><g clip-path="url(#280743030c)"><g clip-path="url(#33792d7984)"><rect x="-645" width="2160" fill="#ffffff" height="2159.999904" y="-1342.999985" fill-opacity="1"/></g></g></g></g></g></g><g clip-path="url(#2524579f9e)"><g clip-path="url(#6a73ec17cd)"><g transform="matrix(1, 0, 0, 1, 555, 1008)"><g clip-path="url(#cc6f8be711)"><g clip-path="url(#d22da3ac38)"><g clip-path="url(#06443d7333)"><rect x="-885" width="2160" fill="#ffffff" height="2159.999904" y="-1337.999985" fill-opacity="1"/></g></g></g></g></g></g><g clip-path="url(#1495858ca3)"><g clip-path="url(#98e9e746a9)"><g transform="matrix(1, 0, 0, 1, 799, 931)"><g clip-path="url(#574e35e586)"><g clip-path="url(#d8b980c79e)"><g clip-path="url(#72bf4b3c0f)"><rect x="-1129" width="2160" fill="#ffffff" height="2159.999904" y="-1260.999985" fill-opacity="1"/></g></g></g></g></g></g><g clip-path="url(#6216aef132)"><g clip-path="url(#03ecbfebf5)"><g transform="matrix(1, 0, 0, 1, 78, 931)"><g clip-path="url(#bd4b658992)"><g clip-path="url(#50e8c06a79)"><g clip-path="url(#4bc94c6ebd)"><rect x="-408" width="2160" fill="#ffffff" height="2159.999904" y="-1260.999985" fill-opacity="1"/></g></g></g></g></g></g><g clip-path="url(#08b4faa138)"><g clip-path="url(#342682b6b4)"><g transform="matrix(1, 0, 0, 1, 479, 260)"><g clip-path="url(#e448254cd7)"><g clip-path="url(#7f32951e1d)"><g clip-path="url(#9b49182149)"><rect x="-809" width="2160" fill="#ffffff" height="2159.999904" y="-589.999985" fill-opacity="1"/></g></g></g></g></g></g><g clip-path="url(#06cc71f591)"><g clip-path="url(#106df206cd)"><g transform="matrix(1, 0, 0, 1, 619, 291)"><g clip-path="url(#b4441f9ac1)"><g clip-path="url(#360c6944f9)"><g clip-path="url(#0a044f2c04)"><rect x="-949" width="2160" fill="#99ff00" height="2159.999904" y="-620.999985" fill-opacity="1"/></g></g></g></g></g></g><g clip-path="url(#4ad3fc86a1)"><g clip-path="url(#b277c1f2e9)"><g transform="matrix(1, 0, 0, 1, 1065, 1008)"><g clip-path="url(#16d62d29f5)"><g clip-path="url(#51f969f886)"><g clip-path="url(#2d1c1b4c26)"><rect x="-1395" width="2160" fill="#ffffff" height="2159.999904" y="-1337.999985" fill-opacity="1"/></g></g></g></g></g></g><g clip-path="url(#1ec0c21b73)"><g clip-path="url(#d9977a4f24)"><g transform="matrix(1, 0, 0, 1, 1209, 1008)"><g clip-path="url(#0f29fa1c83)"><g clip-path="url(#91ca7b4893)"><g clip-path="url(#5cdb091c15)"><rect x="-1539" width="2160" fill="#ffffff" height="2159.999904" y="-1337.999985" fill-opacity="1"/></g></g></g></g></g></g></svg>